<svg width="30" height="30" viewBox="0 0 30 30" fill="none" xmlns="http://www.w3.org/2000/svg">
<g id="Icons">
<path id="Vector" d="M0 2.85714C0 1.28 1.08606 0 2.42424 0H27.5758C28.9139 0 30 1.28 30 2.85714C30 4.43429 28.9139 5.71429 27.5758 5.71429H2.42424C1.08606 5.71429 0 4.43429 0 2.85714ZM27.5758 12.1429H2.42424C1.08606 12.1429 0 13.4229 0 15C0 16.5771 1.08606 17.8571 2.42424 17.8571H27.5758C28.9139 17.8571 30 16.5771 30 15C30 13.4229 28.9152 12.1429 27.5758 12.1429ZM27.5758 24.2857H2.42424C1.08606 24.2857 0 25.5657 0 27.1429C0 28.72 1.08606 30 2.42424 30H27.5758C28.9139 30 30 28.72 30 27.1429C30 25.5657 28.9152 24.2857 27.5758 24.2857Z" fill="#E7ECEF"/>
</g>
</svg>
